<mxfile host="app.diagrams.net" modified="2024-07-09T11:38:07.483Z" agent="Mozilla/5.0 (Windows NT 10.0; Win64; x64) AppleWebKit/537.36 (KHTML, like Gecko) Chrome/126.0.0.0 Safari/537.36" etag="urFps9_qm-U9oU8Y3WRW" version="24.6.4" type="device">
  <diagram id="R2lEEEUBdFMjLlhIrx00" name="Page-1">
    <mxGraphModel dx="926" dy="467" grid="1" gridSize="10" guides="1" tooltips="1" connect="1" arrows="1" fold="1" page="1" pageScale="1" pageWidth="850" pageHeight="1100" math="0" shadow="0" extFonts="Permanent Marker^https://fonts.googleapis.com/css?family=Permanent+Marker">
      <root>
        <mxCell id="0" />
        <mxCell id="1" parent="0" />
        <mxCell id="zO9tSaMIJwyPVS5McRBk-1" value="Hotel" style="rounded=0;whiteSpace=wrap;html=1;" vertex="1" parent="1">
          <mxGeometry x="540" y="160" width="120" height="60" as="geometry" />
        </mxCell>
        <mxCell id="zO9tSaMIJwyPVS5McRBk-4" value="" style="edgeStyle=orthogonalEdgeStyle;rounded=0;orthogonalLoop=1;jettySize=auto;html=1;endArrow=none;endFill=0;" edge="1" parent="1" source="zO9tSaMIJwyPVS5McRBk-2" target="zO9tSaMIJwyPVS5McRBk-3">
          <mxGeometry relative="1" as="geometry" />
        </mxCell>
        <mxCell id="zO9tSaMIJwyPVS5McRBk-2" value="Room" style="rounded=0;whiteSpace=wrap;html=1;" vertex="1" parent="1">
          <mxGeometry x="230" y="160" width="120" height="60" as="geometry" />
        </mxCell>
        <mxCell id="zO9tSaMIJwyPVS5McRBk-5" value="" style="edgeStyle=orthogonalEdgeStyle;rounded=0;orthogonalLoop=1;jettySize=auto;html=1;" edge="1" parent="1" source="zO9tSaMIJwyPVS5McRBk-3" target="zO9tSaMIJwyPVS5McRBk-1">
          <mxGeometry relative="1" as="geometry" />
        </mxCell>
        <mxCell id="zO9tSaMIJwyPVS5McRBk-3" value="Owned by" style="rhombus;whiteSpace=wrap;html=1;" vertex="1" parent="1">
          <mxGeometry x="410" y="150" width="80" height="80" as="geometry" />
        </mxCell>
        <mxCell id="zO9tSaMIJwyPVS5McRBk-12" value="floor" style="rounded=0;whiteSpace=wrap;html=1;fontFamily=Helvetica;fontSize=11;fontColor=default;labelBackgroundColor=default;" vertex="1" parent="1">
          <mxGeometry x="50" y="260" width="120" height="60" as="geometry" />
        </mxCell>
        <mxCell id="zO9tSaMIJwyPVS5McRBk-15" value="" style="edgeStyle=orthogonalEdgeStyle;shape=connector;rounded=0;orthogonalLoop=1;jettySize=auto;html=1;strokeColor=default;align=center;verticalAlign=middle;fontFamily=Helvetica;fontSize=11;fontColor=default;labelBackgroundColor=default;endArrow=classic;endFill=1;" edge="1" parent="1" source="zO9tSaMIJwyPVS5McRBk-13" target="zO9tSaMIJwyPVS5McRBk-2">
          <mxGeometry relative="1" as="geometry" />
        </mxCell>
        <mxCell id="zO9tSaMIJwyPVS5McRBk-16" value="" style="edgeStyle=orthogonalEdgeStyle;shape=connector;rounded=0;orthogonalLoop=1;jettySize=auto;html=1;strokeColor=default;align=center;verticalAlign=middle;fontFamily=Helvetica;fontSize=11;fontColor=default;labelBackgroundColor=default;endArrow=classic;endFill=1;" edge="1" parent="1" source="zO9tSaMIJwyPVS5McRBk-13" target="zO9tSaMIJwyPVS5McRBk-12">
          <mxGeometry relative="1" as="geometry" />
        </mxCell>
        <mxCell id="zO9tSaMIJwyPVS5McRBk-13" value="is located" style="rhombus;whiteSpace=wrap;html=1;fontFamily=Helvetica;fontSize=11;fontColor=default;labelBackgroundColor=default;" vertex="1" parent="1">
          <mxGeometry x="70" y="150" width="80" height="80" as="geometry" />
        </mxCell>
        <mxCell id="zO9tSaMIJwyPVS5McRBk-36" value="" style="edgeStyle=orthogonalEdgeStyle;shape=connector;rounded=0;orthogonalLoop=1;jettySize=auto;html=1;strokeColor=default;align=center;verticalAlign=middle;fontFamily=Helvetica;fontSize=11;fontColor=default;labelBackgroundColor=default;endArrow=none;endFill=0;" edge="1" parent="1" source="zO9tSaMIJwyPVS5McRBk-19" target="zO9tSaMIJwyPVS5McRBk-25">
          <mxGeometry relative="1" as="geometry" />
        </mxCell>
        <mxCell id="zO9tSaMIJwyPVS5McRBk-19" value="customers" style="rounded=0;whiteSpace=wrap;html=1;fontFamily=Helvetica;fontSize=11;fontColor=default;labelBackgroundColor=default;" vertex="1" parent="1">
          <mxGeometry x="370" y="490" width="120" height="60" as="geometry" />
        </mxCell>
        <mxCell id="zO9tSaMIJwyPVS5McRBk-33" value="" style="edgeStyle=orthogonalEdgeStyle;shape=connector;rounded=0;orthogonalLoop=1;jettySize=auto;html=1;strokeColor=default;align=center;verticalAlign=middle;fontFamily=Helvetica;fontSize=11;fontColor=default;labelBackgroundColor=default;endArrow=classic;endFill=1;" edge="1" parent="1" source="zO9tSaMIJwyPVS5McRBk-21" target="zO9tSaMIJwyPVS5McRBk-2">
          <mxGeometry relative="1" as="geometry" />
        </mxCell>
        <mxCell id="zO9tSaMIJwyPVS5McRBk-43" value="" style="edgeStyle=orthogonalEdgeStyle;shape=connector;rounded=0;orthogonalLoop=1;jettySize=auto;html=1;strokeColor=default;align=center;verticalAlign=middle;fontFamily=Helvetica;fontSize=11;fontColor=default;labelBackgroundColor=default;endArrow=classic;endFill=1;" edge="1" parent="1" source="zO9tSaMIJwyPVS5McRBk-21" target="zO9tSaMIJwyPVS5McRBk-30">
          <mxGeometry relative="1" as="geometry" />
        </mxCell>
        <mxCell id="zO9tSaMIJwyPVS5McRBk-44" value="" style="edgeStyle=orthogonalEdgeStyle;shape=connector;rounded=0;orthogonalLoop=1;jettySize=auto;html=1;strokeColor=default;align=center;verticalAlign=middle;fontFamily=Helvetica;fontSize=11;fontColor=default;labelBackgroundColor=default;endArrow=classic;endFill=1;" edge="1" parent="1" source="zO9tSaMIJwyPVS5McRBk-21" target="zO9tSaMIJwyPVS5McRBk-31">
          <mxGeometry relative="1" as="geometry" />
        </mxCell>
        <mxCell id="zO9tSaMIJwyPVS5McRBk-21" value="has" style="rhombus;whiteSpace=wrap;html=1;fontFamily=Helvetica;fontSize=11;fontColor=default;labelBackgroundColor=default;" vertex="1" parent="1">
          <mxGeometry x="250" y="260" width="80" height="80" as="geometry" />
        </mxCell>
        <mxCell id="zO9tSaMIJwyPVS5McRBk-35" value="" style="edgeStyle=orthogonalEdgeStyle;shape=connector;rounded=0;orthogonalLoop=1;jettySize=auto;html=1;strokeColor=default;align=center;verticalAlign=middle;fontFamily=Helvetica;fontSize=11;fontColor=default;labelBackgroundColor=default;endArrow=classic;endFill=1;" edge="1" parent="1" source="zO9tSaMIJwyPVS5McRBk-25" target="zO9tSaMIJwyPVS5McRBk-31">
          <mxGeometry relative="1" as="geometry" />
        </mxCell>
        <mxCell id="zO9tSaMIJwyPVS5McRBk-25" value="stay&amp;nbsp;" style="rhombus;whiteSpace=wrap;html=1;fontFamily=Helvetica;fontSize=11;fontColor=default;labelBackgroundColor=default;" vertex="1" parent="1">
          <mxGeometry x="250" y="480" width="80" height="80" as="geometry" />
        </mxCell>
        <mxCell id="zO9tSaMIJwyPVS5McRBk-37" value="" style="edgeStyle=orthogonalEdgeStyle;shape=connector;rounded=0;orthogonalLoop=1;jettySize=auto;html=1;strokeColor=default;align=center;verticalAlign=middle;fontFamily=Helvetica;fontSize=11;fontColor=default;labelBackgroundColor=default;endArrow=classic;endFill=1;" edge="1" parent="1" source="zO9tSaMIJwyPVS5McRBk-26" target="zO9tSaMIJwyPVS5McRBk-30">
          <mxGeometry relative="1" as="geometry" />
        </mxCell>
        <mxCell id="zO9tSaMIJwyPVS5McRBk-38" value="" style="edgeStyle=orthogonalEdgeStyle;shape=connector;rounded=0;orthogonalLoop=1;jettySize=auto;html=1;strokeColor=default;align=center;verticalAlign=middle;fontFamily=Helvetica;fontSize=11;fontColor=default;labelBackgroundColor=default;endArrow=none;endFill=0;" edge="1" parent="1" source="zO9tSaMIJwyPVS5McRBk-26" target="zO9tSaMIJwyPVS5McRBk-19">
          <mxGeometry relative="1" as="geometry" />
        </mxCell>
        <mxCell id="zO9tSaMIJwyPVS5McRBk-26" value="stay&amp;nbsp;" style="rhombus;whiteSpace=wrap;html=1;fontFamily=Helvetica;fontSize=11;fontColor=default;labelBackgroundColor=default;" vertex="1" parent="1">
          <mxGeometry x="390" y="360" width="80" height="80" as="geometry" />
        </mxCell>
        <mxCell id="zO9tSaMIJwyPVS5McRBk-30" value="price per week" style="rounded=0;whiteSpace=wrap;html=1;fontFamily=Helvetica;fontSize=11;fontColor=default;labelBackgroundColor=default;" vertex="1" parent="1">
          <mxGeometry x="370" y="270" width="120" height="60" as="geometry" />
        </mxCell>
        <mxCell id="zO9tSaMIJwyPVS5McRBk-31" value="price per day" style="rounded=0;whiteSpace=wrap;html=1;fontFamily=Helvetica;fontSize=11;fontColor=default;labelBackgroundColor=default;" vertex="1" parent="1">
          <mxGeometry x="230" y="370" width="120" height="60" as="geometry" />
        </mxCell>
        <mxCell id="zO9tSaMIJwyPVS5McRBk-45" value="service" style="rounded=0;whiteSpace=wrap;html=1;fontFamily=Helvetica;fontSize=11;fontColor=default;labelBackgroundColor=default;" vertex="1" parent="1">
          <mxGeometry x="620" y="360" width="120" height="60" as="geometry" />
        </mxCell>
        <mxCell id="zO9tSaMIJwyPVS5McRBk-47" style="edgeStyle=orthogonalEdgeStyle;shape=connector;rounded=0;orthogonalLoop=1;jettySize=auto;html=1;exitX=0;exitY=0;exitDx=0;exitDy=0;strokeColor=default;align=center;verticalAlign=middle;fontFamily=Helvetica;fontSize=11;fontColor=default;labelBackgroundColor=default;endArrow=none;endFill=0;" edge="1" parent="1" source="zO9tSaMIJwyPVS5McRBk-46">
          <mxGeometry relative="1" as="geometry">
            <mxPoint x="660" y="250" as="sourcePoint" />
            <mxPoint x="320" y="220" as="targetPoint" />
          </mxGeometry>
        </mxCell>
        <mxCell id="zO9tSaMIJwyPVS5McRBk-48" value="" style="edgeStyle=orthogonalEdgeStyle;shape=connector;rounded=0;orthogonalLoop=1;jettySize=auto;html=1;strokeColor=default;align=center;verticalAlign=middle;fontFamily=Helvetica;fontSize=11;fontColor=default;labelBackgroundColor=default;endArrow=none;endFill=0;" edge="1" parent="1" source="zO9tSaMIJwyPVS5McRBk-46" target="zO9tSaMIJwyPVS5McRBk-45">
          <mxGeometry relative="1" as="geometry" />
        </mxCell>
        <mxCell id="zO9tSaMIJwyPVS5McRBk-46" value="has" style="rhombus;whiteSpace=wrap;html=1;fontFamily=Helvetica;fontSize=11;fontColor=default;labelBackgroundColor=default;" vertex="1" parent="1">
          <mxGeometry x="640" y="230" width="80" height="80" as="geometry" />
        </mxCell>
        <mxCell id="zO9tSaMIJwyPVS5McRBk-104" value="" style="edgeStyle=orthogonalEdgeStyle;shape=connector;rounded=0;orthogonalLoop=1;jettySize=auto;html=1;strokeColor=default;align=center;verticalAlign=middle;fontFamily=Helvetica;fontSize=11;fontColor=default;labelBackgroundColor=default;endArrow=none;endFill=0;" edge="1" parent="1" source="zO9tSaMIJwyPVS5McRBk-65" target="zO9tSaMIJwyPVS5McRBk-25">
          <mxGeometry relative="1" as="geometry" />
        </mxCell>
        <mxCell id="zO9tSaMIJwyPVS5McRBk-105" style="edgeStyle=orthogonalEdgeStyle;shape=connector;rounded=0;orthogonalLoop=1;jettySize=auto;html=1;exitX=1;exitY=0.5;exitDx=0;exitDy=0;entryX=1;entryY=1;entryDx=0;entryDy=0;strokeColor=default;align=center;verticalAlign=middle;fontFamily=Helvetica;fontSize=11;fontColor=default;labelBackgroundColor=default;endArrow=none;endFill=0;" edge="1" parent="1" source="zO9tSaMIJwyPVS5McRBk-65" target="zO9tSaMIJwyPVS5McRBk-26">
          <mxGeometry relative="1" as="geometry">
            <Array as="points">
              <mxPoint x="500" y="625" />
              <mxPoint x="500" y="420" />
            </Array>
          </mxGeometry>
        </mxCell>
        <mxCell id="zO9tSaMIJwyPVS5McRBk-65" value="&#xa;Room payment invoice&#xa;&#xa;" style="rounded=0;whiteSpace=wrap;html=1;fontFamily=Helvetica;fontSize=11;fontColor=default;labelBackgroundColor=default;" vertex="1" parent="1">
          <mxGeometry x="230" y="595" width="120" height="60" as="geometry" />
        </mxCell>
        <mxCell id="zO9tSaMIJwyPVS5McRBk-75" value="" style="edgeStyle=orthogonalEdgeStyle;shape=connector;rounded=0;orthogonalLoop=1;jettySize=auto;html=1;strokeColor=default;align=center;verticalAlign=middle;fontFamily=Helvetica;fontSize=11;fontColor=default;labelBackgroundColor=default;endArrow=none;endFill=0;exitX=0.501;exitY=0;exitDx=0;exitDy=0;exitPerimeter=0;" edge="1" parent="1" source="zO9tSaMIJwyPVS5McRBk-101" target="zO9tSaMIJwyPVS5McRBk-65">
          <mxGeometry relative="1" as="geometry">
            <mxPoint x="220.0588235294117" y="771.2550259984523" as="sourcePoint" />
            <Array as="points">
              <mxPoint x="220" y="670" />
              <mxPoint x="300" y="670" />
            </Array>
          </mxGeometry>
        </mxCell>
        <mxCell id="zO9tSaMIJwyPVS5McRBk-73" value="" style="edgeStyle=orthogonalEdgeStyle;shape=connector;rounded=0;orthogonalLoop=1;jettySize=auto;html=1;strokeColor=default;align=center;verticalAlign=middle;fontFamily=Helvetica;fontSize=11;fontColor=default;labelBackgroundColor=default;endArrow=none;endFill=0;exitX=1;exitY=0.5;exitDx=0;exitDy=0;" edge="1" parent="1" source="zO9tSaMIJwyPVS5McRBk-100" target="zO9tSaMIJwyPVS5McRBk-65">
          <mxGeometry relative="1" as="geometry">
            <mxPoint x="160" y="630" as="sourcePoint" />
          </mxGeometry>
        </mxCell>
        <mxCell id="zO9tSaMIJwyPVS5McRBk-79" value="" style="edgeStyle=orthogonalEdgeStyle;shape=connector;rounded=0;orthogonalLoop=1;jettySize=auto;html=1;strokeColor=default;align=center;verticalAlign=middle;fontFamily=Helvetica;fontSize=11;fontColor=default;labelBackgroundColor=default;endArrow=none;endFill=0;" edge="1" parent="1" source="zO9tSaMIJwyPVS5McRBk-78" target="zO9tSaMIJwyPVS5McRBk-2">
          <mxGeometry relative="1" as="geometry">
            <Array as="points">
              <mxPoint x="360" y="130" />
              <mxPoint x="320" y="130" />
            </Array>
          </mxGeometry>
        </mxCell>
        <mxCell id="zO9tSaMIJwyPVS5McRBk-78" value="&#xa;&lt;span style=&quot;color: rgb(0, 0, 0); font-family: Helvetica; font-size: 12px; font-style: normal; font-variant-ligatures: normal; font-variant-caps: normal; font-weight: 400; letter-spacing: normal; orphans: 2; text-align: center; text-indent: 0px; text-transform: none; widows: 2; word-spacing: 0px; -webkit-text-stroke-width: 0px; white-space: normal; background-color: rgb(251, 251, 251); text-decoration-thickness: initial; text-decoration-style: initial; text-decoration-color: initial; display: inline !important; float: none;&quot;&gt;room code&lt;/span&gt;&#xa;&#xa;" style="ellipse;whiteSpace=wrap;html=1;fontFamily=Helvetica;fontSize=11;fontColor=default;labelBackgroundColor=default;" vertex="1" parent="1">
          <mxGeometry x="320" y="40" width="80" height="60" as="geometry" />
        </mxCell>
        <mxCell id="zO9tSaMIJwyPVS5McRBk-81" value="" style="edgeStyle=orthogonalEdgeStyle;shape=connector;rounded=0;orthogonalLoop=1;jettySize=auto;html=1;strokeColor=default;align=center;verticalAlign=middle;fontFamily=Helvetica;fontSize=11;fontColor=default;labelBackgroundColor=default;endArrow=none;endFill=0;" edge="1" parent="1" source="zO9tSaMIJwyPVS5McRBk-80" target="zO9tSaMIJwyPVS5McRBk-2">
          <mxGeometry relative="1" as="geometry" />
        </mxCell>
        <mxCell id="zO9tSaMIJwyPVS5McRBk-80" value="&lt;span style=&quot;font-size: 12px; background-color: rgb(251, 251, 251);&quot;&gt;room name&lt;/span&gt;" style="ellipse;whiteSpace=wrap;html=1;fontFamily=Helvetica;fontSize=11;fontColor=default;labelBackgroundColor=default;" vertex="1" parent="1">
          <mxGeometry x="210" y="60" width="80" height="60" as="geometry" />
        </mxCell>
        <mxCell id="zO9tSaMIJwyPVS5McRBk-84" value="" style="edgeStyle=orthogonalEdgeStyle;shape=connector;rounded=0;orthogonalLoop=1;jettySize=auto;html=1;strokeColor=default;align=center;verticalAlign=middle;fontFamily=Helvetica;fontSize=11;fontColor=default;labelBackgroundColor=default;endArrow=none;endFill=0;" edge="1" parent="1" source="zO9tSaMIJwyPVS5McRBk-82" target="zO9tSaMIJwyPVS5McRBk-12">
          <mxGeometry relative="1" as="geometry" />
        </mxCell>
        <mxCell id="zO9tSaMIJwyPVS5McRBk-82" value="floor code" style="ellipse;whiteSpace=wrap;html=1;fontFamily=Helvetica;fontSize=11;fontColor=default;labelBackgroundColor=default;" vertex="1" parent="1">
          <mxGeometry x="50" y="350" width="80" height="60" as="geometry" />
        </mxCell>
        <mxCell id="zO9tSaMIJwyPVS5McRBk-86" value="" style="edgeStyle=orthogonalEdgeStyle;shape=connector;rounded=0;orthogonalLoop=1;jettySize=auto;html=1;strokeColor=default;align=center;verticalAlign=middle;fontFamily=Helvetica;fontSize=11;fontColor=default;labelBackgroundColor=default;endArrow=none;endFill=0;" edge="1" parent="1" source="zO9tSaMIJwyPVS5McRBk-85" target="zO9tSaMIJwyPVS5McRBk-31">
          <mxGeometry relative="1" as="geometry" />
        </mxCell>
        <mxCell id="zO9tSaMIJwyPVS5McRBk-85" value="price" style="ellipse;whiteSpace=wrap;html=1;fontFamily=Helvetica;fontSize=11;fontColor=default;labelBackgroundColor=default;" vertex="1" parent="1">
          <mxGeometry x="140" y="375" width="60" height="50" as="geometry" />
        </mxCell>
        <mxCell id="zO9tSaMIJwyPVS5McRBk-88" value="" style="edgeStyle=orthogonalEdgeStyle;shape=connector;rounded=0;orthogonalLoop=1;jettySize=auto;html=1;strokeColor=default;align=center;verticalAlign=middle;fontFamily=Helvetica;fontSize=11;fontColor=default;labelBackgroundColor=default;endArrow=none;endFill=0;" edge="1" parent="1" source="zO9tSaMIJwyPVS5McRBk-87" target="zO9tSaMIJwyPVS5McRBk-30">
          <mxGeometry relative="1" as="geometry" />
        </mxCell>
        <mxCell id="zO9tSaMIJwyPVS5McRBk-87" value="price" style="ellipse;whiteSpace=wrap;html=1;fontFamily=Helvetica;fontSize=11;fontColor=default;labelBackgroundColor=default;" vertex="1" parent="1">
          <mxGeometry x="530" y="275" width="60" height="50" as="geometry" />
        </mxCell>
        <mxCell id="zO9tSaMIJwyPVS5McRBk-90" value="" style="edgeStyle=orthogonalEdgeStyle;shape=connector;rounded=0;orthogonalLoop=1;jettySize=auto;html=1;strokeColor=default;align=center;verticalAlign=middle;fontFamily=Helvetica;fontSize=11;fontColor=default;labelBackgroundColor=default;endArrow=none;endFill=0;" edge="1" parent="1" source="zO9tSaMIJwyPVS5McRBk-89" target="zO9tSaMIJwyPVS5McRBk-45">
          <mxGeometry relative="1" as="geometry" />
        </mxCell>
        <mxCell id="zO9tSaMIJwyPVS5McRBk-89" value="code" style="ellipse;whiteSpace=wrap;html=1;fontFamily=Helvetica;fontSize=11;fontColor=default;labelBackgroundColor=default;" vertex="1" parent="1">
          <mxGeometry x="500" y="360" width="90" height="60" as="geometry" />
        </mxCell>
        <mxCell id="zO9tSaMIJwyPVS5McRBk-92" value="" style="edgeStyle=orthogonalEdgeStyle;shape=connector;rounded=0;orthogonalLoop=1;jettySize=auto;html=1;strokeColor=default;align=center;verticalAlign=middle;fontFamily=Helvetica;fontSize=11;fontColor=default;labelBackgroundColor=default;endArrow=none;endFill=0;" edge="1" parent="1" source="zO9tSaMIJwyPVS5McRBk-91" target="zO9tSaMIJwyPVS5McRBk-45">
          <mxGeometry relative="1" as="geometry" />
        </mxCell>
        <mxCell id="zO9tSaMIJwyPVS5McRBk-91" value="corresponding amount" style="ellipse;whiteSpace=wrap;html=1;fontFamily=Helvetica;fontSize=11;fontColor=default;labelBackgroundColor=default;" vertex="1" parent="1">
          <mxGeometry x="620" y="460" width="120" height="80" as="geometry" />
        </mxCell>
        <mxCell id="zO9tSaMIJwyPVS5McRBk-94" value="" style="edgeStyle=orthogonalEdgeStyle;shape=connector;rounded=0;orthogonalLoop=1;jettySize=auto;html=1;strokeColor=default;align=center;verticalAlign=middle;fontFamily=Helvetica;fontSize=11;fontColor=default;labelBackgroundColor=default;endArrow=none;endFill=0;" edge="1" parent="1" source="zO9tSaMIJwyPVS5McRBk-93" target="zO9tSaMIJwyPVS5McRBk-45">
          <mxGeometry relative="1" as="geometry" />
        </mxCell>
        <mxCell id="zO9tSaMIJwyPVS5McRBk-116" style="edgeStyle=orthogonalEdgeStyle;shape=connector;rounded=0;orthogonalLoop=1;jettySize=auto;html=1;exitX=0.5;exitY=1;exitDx=0;exitDy=0;strokeColor=default;align=center;verticalAlign=middle;fontFamily=Helvetica;fontSize=11;fontColor=default;labelBackgroundColor=default;endArrow=none;endFill=0;entryX=1;entryY=0.25;entryDx=0;entryDy=0;" edge="1" parent="1" source="zO9tSaMIJwyPVS5McRBk-93" target="zO9tSaMIJwyPVS5McRBk-65">
          <mxGeometry relative="1" as="geometry">
            <mxPoint x="829.7058823529412" y="640" as="targetPoint" />
          </mxGeometry>
        </mxCell>
        <mxCell id="zO9tSaMIJwyPVS5McRBk-93" value="name" style="ellipse;whiteSpace=wrap;html=1;fontFamily=Helvetica;fontSize=11;fontColor=default;labelBackgroundColor=default;" vertex="1" parent="1">
          <mxGeometry x="790" y="370" width="80" height="60" as="geometry" />
        </mxCell>
        <mxCell id="zO9tSaMIJwyPVS5McRBk-107" value="" style="edgeStyle=orthogonalEdgeStyle;shape=connector;rounded=0;orthogonalLoop=1;jettySize=auto;html=1;strokeColor=default;align=center;verticalAlign=middle;fontFamily=Helvetica;fontSize=11;fontColor=default;labelBackgroundColor=default;endArrow=none;endFill=0;exitX=0.5;exitY=0;exitDx=0;exitDy=0;" edge="1" parent="1" source="zO9tSaMIJwyPVS5McRBk-95">
          <mxGeometry relative="1" as="geometry">
            <mxPoint x="349.94" y="740" as="sourcePoint" />
            <mxPoint x="319.9988235294117" y="655" as="targetPoint" />
            <Array as="points">
              <mxPoint x="320" y="740" />
              <mxPoint x="320" y="740" />
            </Array>
          </mxGeometry>
        </mxCell>
        <mxCell id="zO9tSaMIJwyPVS5McRBk-95" value="Invoice code" style="ellipse;whiteSpace=wrap;html=1;fontFamily=Helvetica;fontSize=11;fontColor=default;labelBackgroundColor=default;" vertex="1" parent="1">
          <mxGeometry x="280" y="740" width="80" height="60" as="geometry" />
        </mxCell>
        <mxCell id="zO9tSaMIJwyPVS5McRBk-106" style="edgeStyle=orthogonalEdgeStyle;shape=connector;rounded=0;orthogonalLoop=1;jettySize=auto;html=1;exitX=0.5;exitY=0;exitDx=0;exitDy=0;entryX=1;entryY=0.75;entryDx=0;entryDy=0;strokeColor=default;align=center;verticalAlign=middle;fontFamily=Helvetica;fontSize=11;fontColor=default;labelBackgroundColor=default;endArrow=none;endFill=0;" edge="1" parent="1" source="zO9tSaMIJwyPVS5McRBk-97" target="zO9tSaMIJwyPVS5McRBk-65">
          <mxGeometry relative="1" as="geometry" />
        </mxCell>
        <mxCell id="zO9tSaMIJwyPVS5McRBk-97" value="&lt;br&gt;total amount to pay" style="ellipse;whiteSpace=wrap;html=1;fontFamily=Helvetica;fontSize=11;fontColor=default;labelBackgroundColor=default;" vertex="1" parent="1">
          <mxGeometry x="385" y="730" width="80" height="60" as="geometry" />
        </mxCell>
        <mxCell id="zO9tSaMIJwyPVS5McRBk-102" value="" style="edgeStyle=orthogonalEdgeStyle;shape=connector;rounded=0;orthogonalLoop=1;jettySize=auto;html=1;strokeColor=default;align=center;verticalAlign=middle;fontFamily=Helvetica;fontSize=11;fontColor=default;labelBackgroundColor=default;endArrow=none;endFill=0;" edge="1" parent="1" source="zO9tSaMIJwyPVS5McRBk-98" target="zO9tSaMIJwyPVS5McRBk-65">
          <mxGeometry relative="1" as="geometry" />
        </mxCell>
        <mxCell id="zO9tSaMIJwyPVS5McRBk-98" value="&#xa;&lt;br style=&quot;forced-color-adjust: none; color: rgb(0, 0, 0); font-family: Helvetica; font-size: 11px; font-style: normal; font-variant-ligatures: normal; font-variant-caps: normal; font-weight: 400; letter-spacing: normal; orphans: 2; text-align: center; text-indent: 0px; text-transform: none; widows: 2; word-spacing: 0px; -webkit-text-stroke-width: 0px; white-space: normal; text-decoration-thickness: initial; text-decoration-style: initial; text-decoration-color: initial;&quot;&gt;&lt;span style=&quot;color: rgb(0, 0, 0); font-family: Helvetica; font-size: 11px; font-style: normal; font-variant-ligatures: normal; font-variant-caps: normal; font-weight: 400; letter-spacing: normal; orphans: 2; text-align: center; text-indent: 0px; text-transform: none; widows: 2; word-spacing: 0px; -webkit-text-stroke-width: 0px; white-space: normal; background-color: rgb(255, 255, 255); text-decoration-thickness: initial; text-decoration-style: initial; text-decoration-color: initial; display: inline !important; float: none;&quot;&gt;which room&lt;/span&gt;&lt;br style=&quot;forced-color-adjust: none; color: rgb(0, 0, 0); font-family: Helvetica; font-size: 11px; font-style: normal; font-variant-ligatures: normal; font-variant-caps: normal; font-weight: 400; letter-spacing: normal; orphans: 2; text-align: center; text-indent: 0px; text-transform: none; widows: 2; word-spacing: 0px; -webkit-text-stroke-width: 0px; white-space: normal; text-decoration-thickness: initial; text-decoration-style: initial; text-decoration-color: initial;&quot;&gt;&#xa;&#xa;" style="ellipse;whiteSpace=wrap;html=1;fontFamily=Helvetica;fontSize=11;fontColor=default;labelBackgroundColor=default;" vertex="1" parent="1">
          <mxGeometry x="600" y="680" width="80" height="60" as="geometry" />
        </mxCell>
        <mxCell id="zO9tSaMIJwyPVS5McRBk-108" style="edgeStyle=orthogonalEdgeStyle;shape=connector;rounded=0;orthogonalLoop=1;jettySize=auto;html=1;exitX=1;exitY=0.5;exitDx=0;exitDy=0;entryX=0;entryY=0.75;entryDx=0;entryDy=0;strokeColor=default;align=center;verticalAlign=middle;fontFamily=Helvetica;fontSize=11;fontColor=default;labelBackgroundColor=default;endArrow=none;endFill=0;" edge="1" parent="1" source="zO9tSaMIJwyPVS5McRBk-99" target="zO9tSaMIJwyPVS5McRBk-65">
          <mxGeometry relative="1" as="geometry" />
        </mxCell>
        <mxCell id="zO9tSaMIJwyPVS5McRBk-99" value="full name of the customer," style="ellipse;whiteSpace=wrap;html=1;fontFamily=Helvetica;fontSize=11;fontColor=default;labelBackgroundColor=default;" vertex="1" parent="1">
          <mxGeometry x="75" y="700" width="70" height="60" as="geometry" />
        </mxCell>
        <mxCell id="zO9tSaMIJwyPVS5McRBk-100" value="&amp;nbsp;number of days of stay" style="ellipse;whiteSpace=wrap;html=1;fontFamily=Helvetica;fontSize=11;fontColor=default;labelBackgroundColor=default;" vertex="1" parent="1">
          <mxGeometry x="70" y="595" width="80" height="60" as="geometry" />
        </mxCell>
        <mxCell id="zO9tSaMIJwyPVS5McRBk-101" value="identity card&lt;br&gt;code" style="ellipse;whiteSpace=wrap;html=1;fontFamily=Helvetica;fontSize=11;fontColor=default;labelBackgroundColor=default;" vertex="1" parent="1">
          <mxGeometry x="180" y="780" width="80" height="60" as="geometry" />
        </mxCell>
        <mxCell id="zO9tSaMIJwyPVS5McRBk-117" style="edgeStyle=orthogonalEdgeStyle;shape=connector;rounded=0;orthogonalLoop=1;jettySize=auto;html=1;exitX=1;exitY=1;exitDx=0;exitDy=0;entryX=0.25;entryY=0;entryDx=0;entryDy=0;strokeColor=default;align=center;verticalAlign=middle;fontFamily=Helvetica;fontSize=11;fontColor=default;labelBackgroundColor=default;endArrow=none;endFill=0;" edge="1" parent="1" source="zO9tSaMIJwyPVS5McRBk-109" target="zO9tSaMIJwyPVS5McRBk-65">
          <mxGeometry relative="1" as="geometry" />
        </mxCell>
        <mxCell id="zO9tSaMIJwyPVS5McRBk-109" value="total amount of the guest &lt;br/&gt;to be paid" style="ellipse;whiteSpace=wrap;html=1;fontFamily=Helvetica;fontSize=11;fontColor=default;labelBackgroundColor=default;" vertex="1" parent="1">
          <mxGeometry x="75" y="500" width="90" height="60" as="geometry" />
        </mxCell>
        <mxCell id="zO9tSaMIJwyPVS5McRBk-111" value="service amount" style="ellipse;whiteSpace=wrap;html=1;fontFamily=Helvetica;fontSize=11;fontColor=default;labelBackgroundColor=default;" vertex="1" parent="1">
          <mxGeometry x="320" y="900" width="90" height="60" as="geometry" />
        </mxCell>
        <mxCell id="zO9tSaMIJwyPVS5McRBk-113" style="edgeStyle=orthogonalEdgeStyle;shape=connector;rounded=0;orthogonalLoop=1;jettySize=auto;html=1;exitX=0;exitY=0;exitDx=0;exitDy=0;entryX=0.333;entryY=1.083;entryDx=0;entryDy=0;entryPerimeter=0;strokeColor=default;align=center;verticalAlign=middle;fontFamily=Helvetica;fontSize=11;fontColor=default;labelBackgroundColor=default;endArrow=none;endFill=0;" edge="1" parent="1" source="zO9tSaMIJwyPVS5McRBk-111" target="zO9tSaMIJwyPVS5McRBk-65">
          <mxGeometry relative="1" as="geometry">
            <Array as="points">
              <mxPoint x="270" y="909" />
            </Array>
          </mxGeometry>
        </mxCell>
      </root>
    </mxGraphModel>
  </diagram>
</mxfile>
